<svg xmlns="http://www.w3.org/2000/svg" xmlns:xlink="http://www.w3.org/1999/xlink" height="48" width="48"><defs><linearGradient id="a"><stop offset="0" stop-color="#282828"/><stop offset="1"/></linearGradient><radialGradient r="31" fy="19.6" fx="16" cy="19.6" cx="16" gradientTransform="matrix(.70968 0 0 .5484 12.645 13.252)" gradientUnits="userSpaceOnUse" id="b" xlink:href="#a"/></defs><path d="M7.867 7C4.617 7 2 9.528 2 12.668v22.664C2 38.472 4.617 41 7.867 41h32.266C43.383 41 46 38.472 46 35.332V12.668C46 9.528 43.383 7 40.133 7H32c3.024 0 5 1.948 5 5v2h4l-7.5 10L26 14h4v-2c.075-2.664-1.838-4.892-4.5-5H7.867zM7 20h3.998l.004 4H7v-4zm8 4v4l-3.994-.004-.012-3.992L15 24zm-8 4h4v4H7v-4zm8 4h12v4H15v-4z" fill="url(#b)"/><path d="M25.5 7c2.662.108 4.575 2.336 4.5 5v2h-4l7.5 10L41 14h-4v-2c0-3.052-1.976-5-5-5zM7 20v4h4.002l-.004-4zm3.994 4.003l.012 3.994L15 28v-4zM7 28v4h4v-4zm8 4v4h12v-4z" fill="#f2f2f2"/><path d="M7.866 7C4.616 7 2 9.527 2 12.666V22c13.287 4.158 30.625 4.07 44 0v-9.334C46 9.526 43.384 7 40.134 7z" fill="#fff" fill-opacity=".098"/></svg>