<svg xmlns="http://www.w3.org/2000/svg" xmlns:xlink="http://www.w3.org/1999/xlink" width="48" height="48"><defs><linearGradient id="a"><stop stop-color="#282828" offset="0"/><stop offset="1"/></linearGradient><radialGradient xlink:href="#a" id="b" gradientUnits="userSpaceOnUse" gradientTransform="matrix(.70968 0 0 .5484 12.645 13.252)" cx="16" cy="19.6" fx="16" fy="19.6" r="31"/></defs><path d="M7.867 7h32.266C43.383 7 46 9.527 46 12.667v22.666C46 38.473 43.383 41 40.133 41H7.867C4.617 41 2 38.473 2 35.333V12.667C2 9.527 4.617 7 7.867 7z" fill="url(#b)"/><path d="M25.5 7c2.662.108 4.575 2.336 4.5 5v2h-4l7.5 10L41 14h-4v-2c0-3.052-1.976-5-5-5h-6.5zM7 20v4h4.002l-.004-4zm3.994 4.003l.012 3.994L15 28v-4zM7 28v4h4v-4zm8 4v4h12v-4z" fill="#f2f2f2"/><path d="M7.866 7C4.616 7 2 9.527 2 12.666V22c13.287 4.158 30.625 4.07 44 0v-9.334C46 9.526 43.384 7 40.134 7z" fill="#fff" fill-opacity=".098"/></svg>